<mxfile host="app.diagrams.net" modified="2021-08-15T10:21:13.419Z" agent="5.0 (Macintosh; Intel Mac OS X 10_15_7) AppleWebKit/537.36 (KHTML, like Gecko) Chrome/86.0.4240.193 Safari/537.36" etag="IrAeuNdX1ZyzMVl1tlQw" version="14.9.6" type="github">
  <diagram id="gmPWeeXfXZ79RV1NLUop" name="Page-1">
    <mxGraphModel dx="1773" dy="536" grid="1" gridSize="10" guides="1" tooltips="1" connect="1" arrows="1" fold="1" page="1" pageScale="1" pageWidth="827" pageHeight="1169" math="0" shadow="0">
      <root>
        <mxCell id="0" />
        <mxCell id="1" parent="0" />
        <mxCell id="CW6mrvqrE-pQs7qJMu8X-23" value="3" style="rounded=0;whiteSpace=wrap;html=1;fillColor=#ffe6cc;strokeColor=#d79b00;" vertex="1" parent="1">
          <mxGeometry x="200" y="160" width="50" height="50" as="geometry" />
        </mxCell>
        <mxCell id="CW6mrvqrE-pQs7qJMu8X-24" value="4" style="rounded=0;whiteSpace=wrap;html=1;fillColor=#ffe6cc;strokeColor=#d79b00;" vertex="1" parent="1">
          <mxGeometry x="250" y="160" width="50" height="50" as="geometry" />
        </mxCell>
        <mxCell id="CW6mrvqrE-pQs7qJMu8X-25" value="6" style="rounded=0;whiteSpace=wrap;html=1;fillColor=#ffe6cc;strokeColor=#d79b00;" vertex="1" parent="1">
          <mxGeometry x="300" y="160" width="50" height="50" as="geometry" />
        </mxCell>
        <mxCell id="CW6mrvqrE-pQs7qJMu8X-26" value="7" style="rounded=0;whiteSpace=wrap;html=1;fillColor=#ffe6cc;strokeColor=#d79b00;" vertex="1" parent="1">
          <mxGeometry x="350" y="160" width="50" height="50" as="geometry" />
        </mxCell>
        <mxCell id="CW6mrvqrE-pQs7qJMu8X-27" value="2" style="rounded=0;whiteSpace=wrap;html=1;fillColor=#ffe6cc;strokeColor=#d79b00;" vertex="1" parent="1">
          <mxGeometry x="400" y="160" width="50" height="50" as="geometry" />
        </mxCell>
        <mxCell id="CW6mrvqrE-pQs7qJMu8X-28" value="1" style="rounded=0;whiteSpace=wrap;html=1;fillColor=#ffe6cc;strokeColor=#d79b00;" vertex="1" parent="1">
          <mxGeometry x="450" y="160" width="50" height="50" as="geometry" />
        </mxCell>
        <mxCell id="CW6mrvqrE-pQs7qJMu8X-29" value="3" style="rounded=0;whiteSpace=wrap;html=1;fillColor=#ffe6cc;strokeColor=#d79b00;" vertex="1" parent="1">
          <mxGeometry x="170" y="230" width="50" height="50" as="geometry" />
        </mxCell>
        <mxCell id="CW6mrvqrE-pQs7qJMu8X-30" value="4" style="rounded=0;whiteSpace=wrap;html=1;fillColor=#ffe6cc;strokeColor=#d79b00;" vertex="1" parent="1">
          <mxGeometry x="220" y="230" width="50" height="50" as="geometry" />
        </mxCell>
        <mxCell id="CW6mrvqrE-pQs7qJMu8X-31" value="6" style="rounded=0;whiteSpace=wrap;html=1;fillColor=#ffe6cc;strokeColor=#d79b00;" vertex="1" parent="1">
          <mxGeometry x="270" y="230" width="50" height="50" as="geometry" />
        </mxCell>
        <mxCell id="CW6mrvqrE-pQs7qJMu8X-32" value="7" style="rounded=0;whiteSpace=wrap;html=1;fillColor=#ffe6cc;strokeColor=#d79b00;" vertex="1" parent="1">
          <mxGeometry x="370" y="230" width="50" height="50" as="geometry" />
        </mxCell>
        <mxCell id="CW6mrvqrE-pQs7qJMu8X-33" value="2" style="rounded=0;whiteSpace=wrap;html=1;fillColor=#ffe6cc;strokeColor=#d79b00;" vertex="1" parent="1">
          <mxGeometry x="420" y="230" width="50" height="50" as="geometry" />
        </mxCell>
        <mxCell id="CW6mrvqrE-pQs7qJMu8X-34" value="1" style="rounded=0;whiteSpace=wrap;html=1;fillColor=#ffe6cc;strokeColor=#d79b00;" vertex="1" parent="1">
          <mxGeometry x="470" y="230" width="50" height="50" as="geometry" />
        </mxCell>
        <mxCell id="CW6mrvqrE-pQs7qJMu8X-35" value="3" style="rounded=0;whiteSpace=wrap;html=1;fillColor=#ffe6cc;strokeColor=#d79b00;" vertex="1" parent="1">
          <mxGeometry x="145" y="310" width="50" height="50" as="geometry" />
        </mxCell>
        <mxCell id="CW6mrvqrE-pQs7qJMu8X-36" value="4" style="rounded=0;whiteSpace=wrap;html=1;fillColor=#ffe6cc;strokeColor=#d79b00;" vertex="1" parent="1">
          <mxGeometry x="195" y="310" width="50" height="50" as="geometry" />
        </mxCell>
        <mxCell id="CW6mrvqrE-pQs7qJMu8X-37" value="6" style="rounded=0;whiteSpace=wrap;html=1;fillColor=#ffe6cc;strokeColor=#d79b00;" vertex="1" parent="1">
          <mxGeometry x="270" y="310" width="50" height="50" as="geometry" />
        </mxCell>
        <mxCell id="CW6mrvqrE-pQs7qJMu8X-38" value="7" style="rounded=0;whiteSpace=wrap;html=1;fillColor=#ffe6cc;strokeColor=#d79b00;" vertex="1" parent="1">
          <mxGeometry x="375" y="310" width="50" height="50" as="geometry" />
        </mxCell>
        <mxCell id="CW6mrvqrE-pQs7qJMu8X-39" value="2" style="rounded=0;whiteSpace=wrap;html=1;fillColor=#ffe6cc;strokeColor=#d79b00;" vertex="1" parent="1">
          <mxGeometry x="425" y="310" width="50" height="50" as="geometry" />
        </mxCell>
        <mxCell id="CW6mrvqrE-pQs7qJMu8X-40" value="1" style="rounded=0;whiteSpace=wrap;html=1;fillColor=#ffe6cc;strokeColor=#d79b00;" vertex="1" parent="1">
          <mxGeometry x="510" y="310" width="50" height="50" as="geometry" />
        </mxCell>
        <mxCell id="CW6mrvqrE-pQs7qJMu8X-41" value="3" style="rounded=0;whiteSpace=wrap;html=1;fillColor=#ffe6cc;strokeColor=#d79b00;" vertex="1" parent="1">
          <mxGeometry x="120" y="390" width="50" height="50" as="geometry" />
        </mxCell>
        <mxCell id="CW6mrvqrE-pQs7qJMu8X-42" value="4" style="rounded=0;whiteSpace=wrap;html=1;fillColor=#ffe6cc;strokeColor=#d79b00;" vertex="1" parent="1">
          <mxGeometry x="195" y="390" width="50" height="50" as="geometry" />
        </mxCell>
        <mxCell id="CW6mrvqrE-pQs7qJMu8X-43" value="6" style="rounded=0;whiteSpace=wrap;html=1;fillColor=#ffe6cc;strokeColor=#d79b00;" vertex="1" parent="1">
          <mxGeometry x="280" y="390" width="50" height="50" as="geometry" />
        </mxCell>
        <mxCell id="CW6mrvqrE-pQs7qJMu8X-44" value="7" style="rounded=0;whiteSpace=wrap;html=1;fillColor=#ffe6cc;strokeColor=#d79b00;" vertex="1" parent="1">
          <mxGeometry x="370" y="390" width="50" height="50" as="geometry" />
        </mxCell>
        <mxCell id="CW6mrvqrE-pQs7qJMu8X-45" value="2" style="rounded=0;whiteSpace=wrap;html=1;fillColor=#ffe6cc;strokeColor=#d79b00;" vertex="1" parent="1">
          <mxGeometry x="450" y="390" width="50" height="50" as="geometry" />
        </mxCell>
        <mxCell id="CW6mrvqrE-pQs7qJMu8X-46" value="1" style="rounded=0;whiteSpace=wrap;html=1;fillColor=#ffe6cc;strokeColor=#d79b00;" vertex="1" parent="1">
          <mxGeometry x="530" y="390" width="50" height="50" as="geometry" />
        </mxCell>
        <mxCell id="CW6mrvqrE-pQs7qJMu8X-47" value="3" style="rounded=0;whiteSpace=wrap;html=1;fillColor=#ffe6cc;strokeColor=#d79b00;" vertex="1" parent="1">
          <mxGeometry x="140" y="480" width="50" height="50" as="geometry" />
        </mxCell>
        <mxCell id="CW6mrvqrE-pQs7qJMu8X-48" value="4" style="rounded=0;whiteSpace=wrap;html=1;fillColor=#ffe6cc;strokeColor=#d79b00;" vertex="1" parent="1">
          <mxGeometry x="190" y="480" width="50" height="50" as="geometry" />
        </mxCell>
        <mxCell id="CW6mrvqrE-pQs7qJMu8X-49" value="6" style="rounded=0;whiteSpace=wrap;html=1;fillColor=#ffe6cc;strokeColor=#d79b00;" vertex="1" parent="1">
          <mxGeometry x="270" y="480" width="50" height="50" as="geometry" />
        </mxCell>
        <mxCell id="CW6mrvqrE-pQs7qJMu8X-50" value="2" style="rounded=0;whiteSpace=wrap;html=1;fillColor=#ffe6cc;strokeColor=#d79b00;" vertex="1" parent="1">
          <mxGeometry x="380" y="480" width="50" height="50" as="geometry" />
        </mxCell>
        <mxCell id="CW6mrvqrE-pQs7qJMu8X-51" value="7" style="rounded=0;whiteSpace=wrap;html=1;fillColor=#ffe6cc;strokeColor=#d79b00;" vertex="1" parent="1">
          <mxGeometry x="430" y="480" width="50" height="50" as="geometry" />
        </mxCell>
        <mxCell id="CW6mrvqrE-pQs7qJMu8X-52" value="1" style="rounded=0;whiteSpace=wrap;html=1;fillColor=#ffe6cc;strokeColor=#d79b00;" vertex="1" parent="1">
          <mxGeometry x="520" y="480" width="50" height="50" as="geometry" />
        </mxCell>
        <mxCell id="CW6mrvqrE-pQs7qJMu8X-53" value="3" style="rounded=0;whiteSpace=wrap;html=1;fillColor=#ffe6cc;strokeColor=#d79b00;" vertex="1" parent="1">
          <mxGeometry x="155" y="570" width="50" height="50" as="geometry" />
        </mxCell>
        <mxCell id="CW6mrvqrE-pQs7qJMu8X-54" value="4" style="rounded=0;whiteSpace=wrap;html=1;fillColor=#ffe6cc;strokeColor=#d79b00;" vertex="1" parent="1">
          <mxGeometry x="205" y="570" width="50" height="50" as="geometry" />
        </mxCell>
        <mxCell id="CW6mrvqrE-pQs7qJMu8X-55" value="6" style="rounded=0;whiteSpace=wrap;html=1;fillColor=#ffe6cc;strokeColor=#d79b00;" vertex="1" parent="1">
          <mxGeometry x="255" y="570" width="50" height="50" as="geometry" />
        </mxCell>
        <mxCell id="CW6mrvqrE-pQs7qJMu8X-56" value="7" style="rounded=0;whiteSpace=wrap;html=1;fillColor=#ffe6cc;strokeColor=#d79b00;" vertex="1" parent="1">
          <mxGeometry x="450" y="570" width="50" height="50" as="geometry" />
        </mxCell>
        <mxCell id="CW6mrvqrE-pQs7qJMu8X-57" value="2" style="rounded=0;whiteSpace=wrap;html=1;fillColor=#ffe6cc;strokeColor=#d79b00;" vertex="1" parent="1">
          <mxGeometry x="400" y="570" width="50" height="50" as="geometry" />
        </mxCell>
        <mxCell id="CW6mrvqrE-pQs7qJMu8X-58" value="1" style="rounded=0;whiteSpace=wrap;html=1;fillColor=#ffe6cc;strokeColor=#d79b00;" vertex="1" parent="1">
          <mxGeometry x="350" y="570" width="50" height="50" as="geometry" />
        </mxCell>
        <mxCell id="CW6mrvqrE-pQs7qJMu8X-65" value="1" style="rounded=0;whiteSpace=wrap;html=1;fillColor=#ffe6cc;strokeColor=#d79b00;" vertex="1" parent="1">
          <mxGeometry x="180" y="650" width="50" height="50" as="geometry" />
        </mxCell>
        <mxCell id="CW6mrvqrE-pQs7qJMu8X-66" value="2" style="rounded=0;whiteSpace=wrap;html=1;fillColor=#ffe6cc;strokeColor=#d79b00;" vertex="1" parent="1">
          <mxGeometry x="230" y="650" width="50" height="50" as="geometry" />
        </mxCell>
        <mxCell id="CW6mrvqrE-pQs7qJMu8X-67" value="3" style="rounded=0;whiteSpace=wrap;html=1;fillColor=#ffe6cc;strokeColor=#d79b00;" vertex="1" parent="1">
          <mxGeometry x="280" y="650" width="50" height="50" as="geometry" />
        </mxCell>
        <mxCell id="CW6mrvqrE-pQs7qJMu8X-68" value="4" style="rounded=0;whiteSpace=wrap;html=1;fillColor=#ffe6cc;strokeColor=#d79b00;" vertex="1" parent="1">
          <mxGeometry x="330" y="650" width="50" height="50" as="geometry" />
        </mxCell>
        <mxCell id="CW6mrvqrE-pQs7qJMu8X-69" value="6" style="rounded=0;whiteSpace=wrap;html=1;fillColor=#ffe6cc;strokeColor=#d79b00;" vertex="1" parent="1">
          <mxGeometry x="380" y="650" width="50" height="50" as="geometry" />
        </mxCell>
        <mxCell id="CW6mrvqrE-pQs7qJMu8X-70" value="7" style="rounded=0;whiteSpace=wrap;html=1;fillColor=#ffe6cc;strokeColor=#d79b00;" vertex="1" parent="1">
          <mxGeometry x="430" y="650" width="50" height="50" as="geometry" />
        </mxCell>
        <mxCell id="CW6mrvqrE-pQs7qJMu8X-71" value="" style="shape=curlyBracket;whiteSpace=wrap;html=1;rounded=1;" vertex="1" parent="1">
          <mxGeometry x="50" y="170" width="20" height="240" as="geometry" />
        </mxCell>
        <mxCell id="CW6mrvqrE-pQs7qJMu8X-72" value="" style="shape=curlyBracket;whiteSpace=wrap;html=1;rounded=1;" vertex="1" parent="1">
          <mxGeometry x="50" y="420" width="20" height="260" as="geometry" />
        </mxCell>
        <mxCell id="CW6mrvqrE-pQs7qJMu8X-73" value="拆分" style="text;html=1;align=center;verticalAlign=middle;resizable=0;points=[];autosize=1;strokeColor=none;" vertex="1" parent="1">
          <mxGeometry x="-10" y="280" width="40" height="20" as="geometry" />
        </mxCell>
        <mxCell id="CW6mrvqrE-pQs7qJMu8X-74" value="合并" style="text;html=1;align=center;verticalAlign=middle;resizable=0;points=[];autosize=1;strokeColor=none;" vertex="1" parent="1">
          <mxGeometry x="-10" y="540" width="40" height="20" as="geometry" />
        </mxCell>
      </root>
    </mxGraphModel>
  </diagram>
</mxfile>
